<?xml version="1.0" encoding="UTF-8"?>
<svg version="1.1" xmlns="http://www.w3.org/2000/svg" width="136" height="59">
<path d="M0 0 C1.7890625 1.31640625 1.7890625 1.31640625 3 3 C3.4375 6.5 3.4375 6.5 3 10 C0.69075844 12.81125059 -2.1887898 13.37497515 -5.5625 14.375 C-8.60719443 15.35311436 -9.84968375 15.84526268 -12.125 18.1875 C-13.328106 22.05462643 -13.3009971 25.15322461 -12 29 C-9.28404736 32.1952384 -7.70809883 32.89700381 -3.5625 33.5 C0.86474724 32.87863197 3.83138763 31.16861237 7 28 C7.13329564 26.31455074 7.23119813 24.62625604 7.3125 22.9375 C7.99448213 15.18496785 10.18666607 10.39840621 15.9375 5.125 C20.2783615 1.61707133 22.96569612 -0.13791891 28.6875 0.25 C32 1 32 1 34 3 C34.57309942 8.15789474 34.57309942 8.15789474 34 11 C31.8125 12.8125 31.8125 12.8125 29 14 C26.00923276 15.53015998 24.35297205 16.40636519 22.625 19.3125 C21.84975642 22.64604738 22.02281387 24.71944656 23 28 C25.14940507 30.94548102 26.48867842 31.85086454 30 32.875 C33.0961367 33.0040057 34.44496838 32.67059759 37 31 C35.88625 30.608125 34.7725 30.21625 33.625 29.8125 C30.90829088 28.63636374 30.10338161 28.1510962 28.375 25.625 C28 23 28 23 29.02734375 20.38671875 C31 18 31 18 34.35546875 17.29296875 C35.62003906 17.25816406 36.88460937 17.22335938 38.1875 17.1875 C39.45980469 17.13980469 40.73210937 17.09210937 42.04296875 17.04296875 C43.01878906 17.02878906 43.99460937 17.01460937 45 17 C44.51273437 16.08605469 44.02546875 15.17210937 43.5234375 14.23046875 C41.75527651 10.4810607 41.53590146 8.0995371 42 4 C43.0625 2.0625 43.0625 2.0625 45 1 C48.4375 0.5 48.4375 0.5 52 1 C55.84428877 4.9690527 58.21971778 9.82886363 60.75 14.6875 C61.16121094 15.45900391 61.57242188 16.23050781 61.99609375 17.02539062 C65 22.73880035 65 22.73880035 65 25 C65.66 25 66.32 25 67 25 C67.24878906 24.16855469 67.49757813 23.33710937 67.75390625 22.48046875 C69.16498241 18.53918706 70.95523873 14.98968559 72.9375 11.3125 C73.28490234 10.64927734 73.63230469 9.98605469 73.99023438 9.30273438 C77.38201564 2.95991179 77.38201564 2.95991179 80 1 C83.63031776 0.45931438 85.32214079 0.53620159 88.375 2.625 C90.48641583 5.71091544 90.32107111 7.30039795 90 11 C88.81005859 13.92504883 88.81005859 13.92504883 87.1484375 16.95703125 C86.24158203 18.62668945 86.24158203 18.62668945 85.31640625 20.33007812 C84.67574219 21.47927734 84.03507812 22.62847656 83.375 23.8125 C82.75753906 24.95009766 82.14007813 26.08769531 81.50390625 27.25976562 C71.55469889 45.40921442 71.55469889 45.40921442 66.875 47.1875 C63.81861531 46.98817056 62.52889722 46.67288752 60 45 C58.33203125 42.43359375 58.33203125 42.43359375 56.8125 39.4375 C55.22480062 35.99777997 55.22480062 35.99777997 53 33 C52.68289062 33.59167969 52.36578125 34.18335938 52.0390625 34.79296875 C48.21437731 41.26957655 44.29425974 44.86909266 37 47 C27.59971494 48.35674217 21.65159983 46.10106655 14 41 C13.45214844 41.433125 12.90429688 41.86625 12.33984375 42.3125 C4.82652625 47.59014741 -1.9785651 48.41779278 -11 47 C-17.85937032 44.67448418 -22.62038603 40.35981161 -25.9921875 33.97265625 C-28.32291051 27.09792676 -28.32291051 19.90207324 -25.9921875 13.02734375 C-20.8080394 3.20708606 -11.14102627 -2.39133509 0 0 Z " fill="#E71A0F" transform="translate(27,12)"/>
<path d="M0 0 C1.32 0 2.64 0 4 0 C4.33 0.66 4.66 1.32 5 2 C5.66 1.34 6.32 0.68 7 0 C8.32 0 9.64 0 11 0 C11 1.65 11 3.3 11 5 C12.32 5 13.64 5 15 5 C14.835 5.763125 14.67 6.52625 14.5 7.3125 C13.90854604 10.03596236 13.90854604 10.03596236 14 13 C14 13.99 14 14.98 14 16 C12.02 16 10.04 16 8 16 C7.67 16.99 7.34 17.98 7 19 C5.68 19 4.36 19 3 19 C2.67 18.01 2.34 17.02 2 16 C0.35 16 -1.3 16 -3 16 C-2.67 14.35 -2.34 12.7 -2 11 C-2.99 10.34 -3.98 9.68 -5 9 C-4.67 7.68 -4.34 6.36 -4 5 C-2.68 5 -1.36 5 0 5 C-0.2784375 4.0409375 -0.2784375 4.0409375 -0.5625 3.0625 C-0.706875 2.381875 -0.85125 1.70125 -1 1 C-0.67 0.67 -0.34 0.34 0 0 Z M3 9 C3.33 10.32 3.66 11.64 4 13 C5.32 12.67 6.64 12.34 8 12 C6.62514468 10.45833358 6.62514468 10.45833358 5 9 C4.34 9 3.68 9 3 9 Z " fill="#E71B0E" transform="translate(121,0)"/>
<path d="M0 0 C1.32 0 2.64 0 4 0 C3.50769231 6.52307692 3.50769231 6.52307692 0.9375 8.9375 C0.298125 9.288125 -0.34125 9.63875 -1 10 C-1.33 9.67 -1.66 9.34 -2 9 C-1.9140625 7.1875 -1.9140625 7.1875 -1.625 5 C-1.53476563 4.278125 -1.44453125 3.55625 -1.3515625 2.8125 C-1 1 -1 1 0 0 Z " fill="#EC6C00" transform="translate(128,0)"/>
<path d="M0 0 C1.32 0 2.64 0 4 0 C5.60725635 3.21451269 5.05748185 6.43612536 5 10 C-0.73529412 4.70588235 -0.73529412 4.70588235 -1 1 C-0.67 0.67 -0.34 0.34 0 0 Z " fill="#E71A0F" transform="translate(121,0)"/>
<path d="M0 0 C3.25696479 0.41755959 4.63443291 0.63443291 7 3 C7 3.99 7 4.98 7 6 C4.69 5.67 2.38 5.34 0 5 C-0.5625 3.0625 -0.5625 3.0625 -1 1 C-0.67 0.67 -0.34 0.34 0 0 Z " fill="#EC6C00" transform="translate(117,5)"/>
<path d="M0 0 C1.32 0 2.64 0 4 0 C3.125 4.875 3.125 4.875 2 6 C0.00041636 6.04080783 -2.00045254 6.04254356 -4 6 C-2.84826645 3.53199953 -1.95216435 1.95216435 0 0 Z " fill="#E71A0E" transform="translate(132,5)"/>
<path d="M0 0 C1.67542976 0.28604898 3.34385343 0.61781233 5 1 C5.33 2.32 5.66 3.64 6 5 C4.02 5 2.04 5 0 5 C-0.5625 3.0625 -0.5625 3.0625 -1 1 C-0.67 0.67 -0.34 0.34 0 0 Z " fill="#EC6B00" transform="translate(129,11)"/>
</svg>
